# xmcd
#
# Track frame offsets: 
#        150
#        8835
#        22707
#        36592
#        49100
#        60687
#        69935
#        81227
#        92605
#        103462
#        113402
#        124830
#
# Disc length: 1830 seconds
#
# Revision: 3
# Processed by: cddbd v1.5.2PL0 Copyright (c) Steve Scherf et al.
# Submitted via: ExactAudioCopy v0.99pb5
#
DISCID=9507240c
DTITLE=Bo Diddley - Bo Diddley Is A Gunslinger
DYEAR=1960
DGENRE=Rock
TTITLE0=Gun Slinger
TTITLE1=Ride On Josephine
TTITLE2=Doing The Crawdaddy
TTITLE3=Cadillac
TTITLE4=Somewhere
TTITLE5=Cheyenne
TTITLE6=Sixteen Tons
TTITLE7=Whoa Mule (Shine)
TTITLE8=No More Lovin'
TTITLE9=Diddling
TTITLE10=Working Man
TTITLE11=Do What I Say
EXTD=
EXTT0=
EXTT1=
EXTT2=
EXTT3=
EXTT4=
EXTT5=
EXTT6=
EXTT7=
EXTT8=
EXTT9=
EXTT10=
EXTT11=
PLAYORDER=
